{"title":"Shuddh Desi Romance (2013) 431MB Scam Rip Xvid ][VAMPIRE ROCK'S]","uid":8887878,"size":452836193,"categoryP":"video","categoryS":"movies","magnet":"?xt=urn:btih:5f18e37f4dda5d56c94e04e10728a25463fa2929&amp;dn=Shuddh+Desi+Romance+%282013%29+431MB+Scam+Rip+Xvid+%5D%5BVAMPIRE+ROCK%27S%5D&amp;tr=udp%3A%2F%2Ftracker.openbittorrent.com%3A80&amp;tr=udp%3A%2F%2Fopen.demonii.com%3A1337&amp;tr=udp%3A%2F%2Ftracker.coppersurfer.tk%3A6969&amp;tr=udp%3A%2F%2Fexodus.desync.com%3A6969","seeders":1,"leechers":0,"uploader":"bhoottt","files":9,"time":1378505812,"description":"[CENTER]\n[URL=http://www.tinyuploads.com/gallery/view/DP8UBG][IMG]http://i.tinyuploads.com/DP8UBG.jpg[/IMG][/URL]\n\n\n[hide]\n[URL=http://www.tinyuploads.com/gallery/view/wG5icG][IMG]http://i.tinyuploads.com/wG5icG.png[/IMG][/URL]\n[URL=http://www.tinyuploads.com/gallery/view/eDV6fT][IMG]http://i.tinyuploads.com/eDV6fT.png[/IMG][/URL]\n[URL=http://www.tinyuploads.com/gallery/view/OclI8a][IMG]http://i.tinyuploads.com/OclI8a.png[/IMG][/URL]\n[URL=http://www.tinyuploads.com/gallery/view/PRqZ7s][IMG]http://i.tinyuploads.com/PRqZ7s.png[/IMG][/URL]\n[URL=http://www.tinyuploads.com/gallery/view/u9d96O][IMG]http://i.tinyuploads.com/u9d96O.png[/IMG][/URL]\n[URL=http://www.tinyuploads.com/gallery/view/CRiH6l][IMG]http://i.tinyuploads.com/CRiH6l.png[/IMG][/URL]\n[URL=http://www.tinyuploads.com/gallery/view/7M8eZf][IMG]http://i.tinyuploads.com/7M8eZf.png[/IMG][/URL]\n[/hide]\n\n\n[B]INFO[/B]\n[CODE]\nGeneral\nFormat                                   : AVI\nFormat/Info                              : Audio Video Interleave\nFile size                                : 431 MiB\nDuration                                 : 1h 54mn\nOverall bit rate                         : 526 Kbps\n\nVideo\nID                                       : 0\nFormat                                   : MPEG-4 Visual\nFormat profile                           : Advanced Simple@L5\nFormat settings, BVOP                    : 2\nFormat settings, QPel                    : No\nFormat settings, GMC                     : No warppoints\nFormat settings, Matrix                  : Default (H.263)\nCodec ID                                 : XVID\nCodec ID/Hint                            : XviD\nDuration                                 : 1h 54mn\nBit rate                                 : 392 Kbps\nWidth                                    : 352 pixels\nHeight                                   : 176 pixels\nDisplay aspect ratio                     : 2.000\nFrame rate                               : 25.000 fps\nColor space                              : YUV\nChroma subsampling                       : 4:2:0\nBit depth                                : 8 bits\nScan type                                : Progressive\nCompression mode                         : Lossy\nBits/(Pixel*Frame)                       : 0.253\nStream size                              : 321 MiB (75%)\nWriting library                          : XviD 1.2.1 (UTC 2008-12-04)\n\nAudio\nID                                       : 1\nFormat                                   : MPEG Audio\nFormat version                           : Version 1\nFormat profile                           : Layer 2\nCodec ID                                 : 50\nDuration                                 : 1h 54mn\nBit rate mode                            : Constant\nBit rate                                 : 128 Kbps\nChannel(s)                               : 2 channels\nSampling rate                            : 48.0 KHz\nCompression mode                         : Lossy\nStream size                              : 105 MiB (24%)\nAlignment                                : Aligned on interleaves\nInterleave, duration                     : 160 ms (4.00 video frames)\nInterleave, preload duration             : 216 ms\n[/CODE]\n\n\n[B][SIZE=&quot;5&quot;]Hit Thanks if you like my post [/SIZE][/B]\n\n[/CENTER]","torrent":{"xt":"urn:btih:5f18e37f4dda5d56c94e04e10728a25463fa2929","amp;dn":"Shuddh+Desi+Romance+%282013%29+431MB+Scam+Rip+Xvid+%5D%5BVAMPIRE+ROCK%27S%5D","amp;tr":["udp%3A%2F%2Ftracker.openbittorrent.com%3A80","udp%3A%2F%2Fopen.demonii.com%3A1337","udp%3A%2F%2Ftracker.coppersurfer.tk%3A6969","udp%3A%2F%2Fexodus.desync.com%3A6969"],"infoHash":"5f18e37f4dda5d56c94e04e10728a25463fa2929","infoHashBuffer":{"type":"Buffer","data":[95,24,227,127,77,218,93,86,201,78,4,225,7,40,162,84,99,250,41,41]},"announce":[],"urlList":[]}}